<?xml version="1.0" encoding="utf-8"?>
<!-- Generator: Adobe Illustrator 13.0.0, SVG Export Plug-In . SVG Version: 6.00 Build 14948)  -->
<!DOCTYPE svg PUBLIC "-//W3C//DTD SVG 1.1//EN" "http://www.w3.org/Graphics/SVG/1.1/DTD/svg11.dtd">
<svg version="1.1" xmlns="http://www.w3.org/2000/svg" xmlns:xlink="http://www.w3.org/1999/xlink" x="0px" y="0px" width="3000px"
	 height="1900px" viewBox="0 0 3000 1900" enable-background="new 0 0 3000 1900" xml:space="preserve">
<g id="Picadilly">
	<path fill="none" stroke="#1C3E93" stroke-width="6.651" stroke-linejoin="round" stroke-miterlimit="3.994" d="M799.332,1393.97
		c-4.659,4.66-6.995,10.761-6.993,16.88v47.75c0,6.11-2.33,12.221-6.99,16.881c-0.232,0.239,0,0,0,0
		c-4.322,4.31-10.289,6.989-16.873,6.989c-6.109,0-12.223-2.34-16.875-6.989c-4.318-4.341-6.984-10.301-6.984-16.881
		c0-6.6,2.67-12.58,7.006-16.899l47.826-47.83 M698.171,1495.13l310.563-310.56c3.439-3.45,10.244-6.261,15.115-6.261h132.006"/>
	<path fill="none" stroke="#1C3E93" stroke-width="6.651" stroke-linejoin="round" stroke-miterlimit="3.994" d="M2301.34,264.448
		v250.703c0,4.867-2.81,11.674-6.26,15.119l-321.5,321.508c-3.45,3.442-6.27,10.242-6.27,15.111v98.739
		c0,4.869-2.82,11.668-6.261,15.113l-86.149,86.151c-3.44,3.442-10.24,6.263-15.12,6.263h-156.95c-4.87,0-11.67,2.816-15.12,6.262
		l-92.63,92.623c-3.439,3.44-10.25,6.27-15.12,6.27h-524.877"/>
	<path fill="none" stroke="#1C3E93" stroke-width="6.649" stroke-linejoin="round" stroke-miterlimit="3.994" d="M1065.677,1178.31
		c-7.498-0.02-14.875-2.829-20.603-8.54l-6.973-6.96c-2.717-2.729-4.377-6.42-4.383-10.579V519.194
		c0-4.867-2.826-11.662-6.273-15.099c0,0-68.414-68.073-71.307-70.967c-2.803-2.803-8.34-5.819-12.896-5.819
		c-5.565,0-248.11,0-248.11,0"/>
</g>
<g id="Metropolitan">
	<path fill="none" stroke="#96005E" stroke-width="6.651" stroke-linejoin="round" stroke-miterlimit="3.994" d="M689.296,652.657
		h254.946c5.974,0,13.289,3.461,17.511,7.678l78.764,78.76c3.44,3.447,10.244,6.265,15.115,6.265h147.379"/>
	<path fill="none" stroke="#96005E" stroke-width="6.65" stroke-linejoin="round" stroke-miterlimit="3.994" d="M1741.23,1088.282
		l294.199,0.026c4,0,7.76,1.551,10.58,4.383 M685.9,497.813h226.164c4.873,0,11.674,2.813,15.119,6.262l234.932,235.02
		c3.441,3.447,10.238,6.265,15.113,6.265l195.195,0.012c4.869,0,11.672,2.818,15.118,6.264l330.379,330.378
		c3.45,3.442,10.24,6.269,15.11,6.269l302.399,0.026c4,0,7.76,1.551,10.58,4.383l78.26,78.248c5.351,5.336,12.44,8.28,19.99,8.28
		h149.75c3.99,0,7.76,1.554,10.58,4.378c2.82,2.829,4.38,6.584,4.38,10.582v73.303"/>
</g>
<g id="Bakerloo">
	<path fill="none" stroke="#AF6010" stroke-width="6.65" stroke-linejoin="round" stroke-miterlimit="3.994" d="M1200.115,719.005
		c-3.821-3.828-6.264-9.557-6.264-15.121 M1805.689,1387.05l-23.81-23.819c-3.44-3.45-6.26-10.25-6.26-15.12V1114.8
		c0-4.859-2.82-11.67-6.271-15.109l-124.76-124.773c-3.439-3.444-6.26-10.244-6.26-15.115v-48.562c0-4.869-2.811-11.668-6.26-15.113
		l-115.2-115.199c-3.44-3.438-10.24-6.26-15.11-6.26l-237.124-0.006c-4.871,0-11.679-2.82-15.115-6.256l-49.406-49.4
		c-3.821-3.828-6.264-9.557-6.264-15.121v-6.508c0-4.871,0-12.84,0-17.711V373.337"/>
</g>
<g id="Northern">
	<path fill="none" stroke="#231F20" stroke-width="6.651" stroke-linejoin="round" stroke-miterlimit="3.994" d="M1645.95,246.454
		c0-4.869-2.81-11.668-6.261-15.115c-2.359-2.362-2.239-2.246-38.789-38.799"/>
	<path fill="none" stroke="#231F20" stroke-width="6.651" stroke-linejoin="round" stroke-miterlimit="3.994" d="M1583.48,656.665
		v-63.469c0-4.871-2.811-11.674-6.261-15.115l-0.76-0.766c-3.44-3.441-6.26-10.246-6.26-15.115v-18.316
		c0-4.875,2.819-11.678,6.26-15.118l63.24-63.248c3.45-3.445,6.27-10.244,6.27-15.115v-342.98"/>
	<path fill="none" stroke="#231F20" stroke-width="6.65" stroke-linejoin="round" stroke-miterlimit="3.994" d="M1517.79,1343.16
		c3.44-3.44,6.26-10.25,6.26-15.12V711.597c0-4.872,2.82-11.672,6.261-15.116l20.35-20.357c3.449-3.442,6.26-10.047,6.26-14.68
		v-68.248c0-4.871,2.82-11.674,6.26-15.115l0.76-0.766c3.451-3.441,6.261-10.246,6.261-15.115v-18.316
		c0-4.875-2.81-11.678-6.261-15.118c-3.529-3.527-303.56-303.566-303.56-303.566 M1209.33,1651.6l572.42-572.399
		c3.439-3.45,6.26-10.25,6.26-15.12V702.151c0-5.965-2.42-11.371-6.33-15.279c-3.91-3.916-9.33-6.334-15.29-6.334h-161.62
		c-11.75,0-21.289-9.531-21.289-21.289v-66.053c0-4.871-2.811-11.674-6.261-15.115l-0.76-0.766c-3.44-3.441-6.26-10.246-6.26-15.115
		v-18.316c0-4.875,2.819-11.678,6.26-15.118"/>
</g>
<g id="Victoria">
	<path fill="none" stroke="#009CDB" stroke-width="6.651" stroke-linejoin="round" stroke-miterlimit="3.994" d="M1240.47,1404.78
		l-171.229-171.23c-3.44-3.439-6.26-10.24-6.26-15.109V876.995c0-4.871,2.82-11.674,6.26-15.109l236.56-236.557
		c3.44-3.441,10.24-6.266,15.11-6.266h213.45c4.87,0,11.67-2.816,15.12-6.258l36.25-36.246c3.439-3.439,6.25-10.238,6.25-15.113
		V446.399c0-4.869,2.819-11.668,6.26-15.109l67.68-67.664c3.44-3.447,10.24-6.266,15.11-6.266h257.45"/>
</g>
<g id="Circle">
	<path fill="none" stroke="#FFD200" stroke-width="6.65" stroke-linejoin="round" stroke-miterlimit="3.994" d="M1006.953,1019.89
		V801.934c-0.024-1.17,0.453-3.461,1.334-5.541c0.849-2.101,2.136-4.052,2.98-4.865l73.527-73.531
		c4.125-4.106,9.456-6.317,15.274-6.324l611.362-0.014c5.971,0,11.37,2.418,15.29,6.332l78.25,78.248
		c3.92,3.91,9.32,6.324,15.29,6.324h149.75c5.971,0,11.37,2.42,15.28,6.334c3.91,3.916,6.33,9.317,6.33,15.283v102.284
		c0,5.961-2.42,11.371-6.33,15.283s-9.31,6.328-15.28,6.328h-155.93c-5.97,0-11.37,2.42-15.28,6.326l-91.83,91.839
		c-2.829,2.819-6.59,4.38-10.579,4.38h-503.827c-5.961,0-11.371-2.42-15.279-6.32c-4.217-4.229-6.33-9.76-6.33-15.29V750.757
		c0-5.971,2.416-11.371,6.33-15.28c3.908-3.916,9.318-6.334,15.279-6.334h56.626"/>
</g>
<g id="District">
	<path fill="none" stroke="#00843F" stroke-width="6.651" stroke-linejoin="round" stroke-miterlimit="3.994" d="M608.273,1018.27
		c-5.973,0-11.375,2.421-15.285,6.33c-3.914,3.91-6.33,9.311-6.33,15.29v160.091"/>
	<path fill="none" stroke="#00843F" stroke-width="6.65" stroke-linejoin="round" stroke-miterlimit="3.994" d="M2538.41,399.534
		l-341.28,341.277c-3.44,3.446-10.24,6.266-15.11,6.266l-221.43-0.008c-4.859,0-11.67,2.813-15.109,6.262L1791.38,907.442
		c-5.34,5.342-12.44,8.284-19.99,8.284h-165.31c-3.99,0-7.75,1.552-10.58,4.384l-91.83,91.83c-3.91,3.909-9.31,6.329-15.28,6.329
		H539.208c-5.97,0-11.373-2.42-15.285-6.329l-21.527-21.521c-3.908-3.9-6.328-9.31-6.328-15.28V844.13
		c0-5.975-2.42-11.371-6.33-15.285c-3.912-3.911-9.315-6.331-15.283-6.331c-5.463,0-17.303,0-17.303,0 M934.097,1018.39
		c-5.965,0-11.373,2.42-15.283,6.33s-6.33,9.311-6.33,15.29c0,5.8,0,325.061,0,325.061 M934.097,1018.39
		c-5.965,0-11.373-2.42-15.283-6.33c-3.91-3.909-6.33-9.319-6.33-15.279c0-5.811,0-65.74,0-65.74"/>
	<path fill="none" stroke="#00843F" stroke-width="6.65" stroke-linejoin="round" stroke-miterlimit="3.994" d="M934.695,1018.39
		c5.961,0,11.828-2.89,15.277-6.33c3.453-3.46,6.326-9.319,6.326-15.279V711.757c0-7.547,2.944-14.647,8.284-19.983
		c5.339-5.344,12.435-8.279,19.982-8.279h56.306"/>
</g>
<g id="Hammersmith">
	<path fill="none" stroke="#F285A0" stroke-width="6.65" stroke-linejoin="round" stroke-miterlimit="3.994" d="M744.291,1059.89
		V841.934c0-4.869,2.824-11.671,6.265-15.119l73.527-73.529c5.336-5.336,12.44-8.275,19.985-8.275h611.362
		c7.55,0,14.65,2.939,19.99,8.275l78.26,78.254c2.83,2.822,6.58,4.375,10.58,4.375h149.75c7.551,0,14.65,2.947,19.99,8.275
		c5.34,5.346,8.27,12.44,8.27,19.99c0,8.184,0,45.948,0,45.948c0,5.527,2.11,11.06,6.33,15.275l7.59,7.555
		c4.74,4.74,7.881,7.113,14.091,7.113s12.43-2.373,17.17-7.113l105.33-105.328c2.63-2.602,5.8-4.446,9.18-5.866
		c3.39-1.388,6.94-2.33,10.63-2.351l221.221,0.014c0.119-0.004,0.229-0.004,0.34,0c1.21-0.018,3.41-0.483,5.41-1.334
		c2.1-0.844,4.05-2.133,4.869-2.985L2255.34,704.2"/>
</g>
<g id="EL">
	<path fill="none" stroke="#F7931E" stroke-width="6.65" stroke-linejoin="round" stroke-miterlimit="3.994" d="M859.466,614.514
		V95.278 M776.722,606.677c-3.435,3.447-6.262,10.248-6.265,15.119 M954.136,1156.09c0,4.87,2.821,11.67,6.266,15.12l197.728,197.73
		 M2178.16,660.919H2003.8c-4.87,0-11.68-2.817-15.11-6.258l-68.909-68.897c-3.44-3.445-10.24-6.259-15.11-6.259h-291.95
		c-4.87,0-11.67-2.819-15.12-6.26l-103.33-103.344c-3.45-3.447-10.25-6.262-15.13-6.262h-129.93c-4.86,0-11.67,2.815-15.11,6.262
		l-83.54,83.539c-3.44,3.446-10.24,6.26-15.11,6.26h-402.9c-4.871,0-11.67,2.816-15.115,6.266 M711.382,672.016
		c-3.441,3.44-6.259,10.248-6.259,15.12v319.044c0,4.87-2.821,11.681-6.266,15.12l-51.572,51.61
		c-5.104,5.08-8.284,12.189-8.28,19.979c0,8.41,0,160.091,0,160.091 M2360.63,676.292v-56.76c0-4.869-2.81-11.67-6.26-15.115
		l-17.16-17.162c-3.44-3.448-10.25-6.266-15.11-6.266H2104.86c-4.86,0-11.671-2.82-15.11-6.256L2050,534.979
		c-3.45-3.445-6.27-10.25-6.27-15.119v-72.472c0-4.868-2.811-11.668-6.261-15.116l-65.1-65.101c-3.431-3.44-10.24-6.26-15.11-6.26
		H1727.3c-4.88,0-11.68,2.82-15.12,6.26l-71.59,71.59c-3.45,3.441-10.24,6.259-15.109,6.259H1466.6"/>
	<path fill="none" stroke="#F7931E" stroke-width="6.65" stroke-linejoin="round" stroke-miterlimit="3.994" d="M776.767,606.686
		c-3.443,3.442-6.266,10.243-6.275,15.112l-0.159,120.879c-0.003,4.865,2.805,11.671,6.25,15.111l171.331,171.33
		c3.435,3.444,6.255,10.252,6.255,15.121v211.841c0,4.87,2.819,11.67,6.264,15.11l197.727,197.739 M2178.14,660.929h-174.35
		c-4.87,0-11.67-2.823-15.101-6.264l-68.909-68.891c-3.44-3.445-10.24-6.258-15.11-6.258h-291.95
		c-4.859,0-11.659-2.824-15.109-6.265l-103.33-103.336c-3.45-3.445-10.25-6.264-15.12-6.264h-129.92
		c-4.87,0-11.67,2.819-15.12,6.264l-83.54,83.535c-3.44,3.445-10.24,6.26-15.11,6.26H832.591c-4.881,0-11.677,2.82-15.119,6.265
		L711.427,672.018c-3.445,3.44-6.267,10.246-6.267,15.118v319.044c0,4.86-2.813,11.66-6.258,15.11l-51.572,51.6
		c-5.1,5.091-8.28,12.21-8.28,19.98c0,8.42,0,160.85,0,160.85"/>
	<path fill="none" stroke="#F7931E" stroke-width="6.65" stroke-linejoin="round" stroke-miterlimit="3.994" d="M1828.51,1552.4
		c0,5.54-2.109,11.069-6.34,15.29c-21.109,21.109-58.27,58.26-58.27,58.26 M1930.561,1192.45c0,5.53-2.121,11.06-6.341,15.29
		c-7.659,7.66-89.38,89.38-89.38,89.38c-4.22,4.22-6.33,8.1-6.33,13.96v356.17 M1930.561,1335.3c0-13.819,0-35.31,0-712.946"/>
	<path fill="none" stroke="#F7931E" stroke-width="6.65" stroke-linejoin="round" stroke-miterlimit="3.994" d="M1428.85,691.561
		l-42.51-42.515c-3.45-3.446-10.25-6.264-15.12-6.264H874.236c-3.516,0.049-7.893-1.713-10.42-4.318
		c-2.516-2.448-4.367-6.791-4.309-10.418V95.305"/>
</g>
<g id="DLR">
	<path fill="none" stroke="#00A99D" stroke-width="6.65" stroke-linejoin="round" stroke-miterlimit="3.994" d="M1782.08,737.479
		v14.131c0,4.869-2.82,11.67-6.26,15.11l-81.771,81.763c-3.45,3.442-6.26,8.588-6.26,13.516v642.531"/>
	<path fill="none" stroke="#00A99D" stroke-width="6.65" stroke-linejoin="round" stroke-miterlimit="3.994" d="M1479.36,1031.688
		c-4.87,0-11.671,2.813-15.11,6.259c-4.7,4.688-27.36,27.354-27.36,27.354 M1284.84,1006.708h152.5c4.87,0,11.68,2.826,15.12,6.265
		l12.45,12.452c3.439,3.439,10.25,6.263,15.12,6.263h465.76c4.87,0,11.67,2.813,15.11,6.259l187.67,187.674 M1657.84,1031.688
		c4.391,0,10.811,2.813,14.25,6.259l9.44,9.443c3.45,3.44,6.26,10.24,6.26,15.11 M1884.49,1031.694c4.87,0,11.67,2.814,15.12,6.254
		l314.56,314.571"/>
</g>
<g id="Central">
	<path fill="none" stroke="#ED3024" stroke-width="6.651" stroke-linejoin="round" stroke-miterlimit="3.994" d="M516.761,624.79
		v222.43c0,4.869,2.819,11.679,6.264,15.121l257.258,257.252c3.445,3.451,10.25,6.263,15.113,6.263 M2328.1,728.446
		c0-7.607,6.16-13.771,13.771-13.771h127.069c7.601,0,13.771-6.166,13.771-13.776V545.993c0-7.604-6.17-13.775-13.771-13.775
		H2341.87c-7.61,0-13.771,6.171-13.771,13.775 M2328.1,346.348v516.811c0,2.814-2.819,9.627-6.26,13.066l-147.74,147.741
		c-3.439,3.445-10.239,6.257-15.109,6.257"/>
	<path fill="none" stroke="#ED3024" stroke-width="6.65" stroke-linejoin="round" stroke-miterlimit="3.994" d="M2158.98,1030.223
		H1958.97c-4.87,0-11.67,2.823-15.12,6.269l-128.859,128.873c-3.45,3.44-10.25,6.258-15.12,6.258h-79.49
		c-4.87,0-11.66-2.817-15.11-6.258l-33.239-33.236c-3.44-3.448-10.24-6.264-15.11-6.264H612.041"/>
	
		<line fill="none" stroke="#ED3024" stroke-width="6.651" stroke-linejoin="round" stroke-miterlimit="3.994" x1="516.761" y1="509.651" x2="516.761" y2="626.618"/>
</g>
</svg>
